<svg id="Capa_1" enable-background="new 0 0 512 512" height="512" viewBox="0 0 512 512" width="512" xmlns="http://www.w3.org/2000/svg"><g><g><path d="m350.876 341.05v128.31c0 8.29-6.71 15-14.978 15h-320.92c-8.268 0-14.978-6.71-14.978-15v-426.72c0-8.28 6.71-15 14.978-15h225.066c3.974 0 7.779 1.58 10.595 4.4l95.842 95.98c2.806 2.81 4.384 6.63 4.384 10.61v14.99z" fill="#f0f7ff"/></g><path d="m350.876 341.05v128.31c0 8.29-6.71 15-14.978 15h-160.46v-456.72h64.607c3.974 0 7.779 1.58 10.595 4.4l95.842 95.98c2.806 2.81 4.384 6.63 4.384 10.61v14.99z" fill="#dfe7f4"/><g><path d="m350.866 138.63v14.99h-110.821c-8.268 0-14.978-6.72-14.978-15v-110.98h14.978c3.974 0 7.779 1.58 10.595 4.4l95.842 95.98c2.806 2.81 4.384 6.63 4.384 10.61z" fill="#c0ccdd"/></g><g><g><path d="m140.558 210.997h-95.253c-8.272 0-14.978-6.716-14.978-15s6.706-15 14.978-15h95.253c8.272 0 14.978 6.716 14.978 15s-6.706 15-14.978 15z" fill="#4793ff"/></g><g><path d="m140.558 150.997h-95.253c-8.272 0-14.978-6.716-14.978-15s6.706-15 14.978-15h95.253c8.272 0 14.978 6.716 14.978 15s-6.706 15-14.978 15z" fill="#4793ff"/></g><g><path d="m140.558 270.997h-95.253c-8.272 0-14.978-6.716-14.978-15s6.706-15 14.978-15h95.253c8.272 0 14.978 6.716 14.978 15s-6.706 15-14.978 15z" fill="#4793ff"/></g><g><path d="m140.558 330.997h-95.253c-8.272 0-14.978-6.716-14.978-15s6.706-15 14.978-15h95.253c8.272 0 14.978 6.716 14.978 15s-6.706 15-14.978 15z" fill="#4793ff"/></g><g><path d="m140.558 390.997h-95.253c-8.272 0-14.978-6.716-14.978-15s6.706-15 14.978-15h95.253c8.272 0 14.978 6.716 14.978 15s-6.706 15-14.978 15z" fill="#4793ff"/></g></g><g><g><path d="m507.121 312.16-94.924 86.68c-9.553 8.719-25.074 1.98-25.074-11.09v-31.7h-125.799c-8.268 0-14.978-6.71-14.978-15v-80c0-8.28 6.71-15 14.978-15h125.789l-.01-31.69c0-13.009 15.463-19.859 25.074-11.09l94.943 86.72c6.504 5.947 6.509 16.219.001 22.17z" fill="#8bbc43"/></g></g></g></svg>